<svg width="11" height="9" viewBox="0 0 11 9" fill="none" xmlns="http://www.w3.org/2000/svg">
<path d="M5.72569 4.28413L1.75195 0.485925C1.46314 0.209869 1.01234 0.196946 0.708189 0.456003C0.356534 0.755519 0.341113 1.29344 0.675033 1.61261L3.69585 4.5L0.675033 7.38739C0.341113 7.70656 0.356533 8.24448 0.708189 8.544C1.01234 8.80305 1.46314 8.79013 1.75195 8.51408L5.72569 4.71587C5.85366 4.6004 5.85366 4.3996 5.72569 4.28413Z" fill="#195AF6"/>
<path d="M9.82676 4.28413L5.85303 0.485925C5.56421 0.209869 5.11342 0.196946 4.80926 0.456003C4.45761 0.755519 4.44219 1.29344 4.77611 1.61261L7.79693 4.5L4.77611 7.38739C4.44219 7.70656 4.45761 8.24448 4.80926 8.544C5.11342 8.80305 5.56421 8.79013 5.85303 8.51408L9.82676 4.71587C9.95473 4.6004 9.95473 4.3996 9.82676 4.28413Z" fill="#195AF6"/>
</svg>
