<?xml version="1.0" ?><!DOCTYPE svg  PUBLIC '-//W3C//DTD SVG 1.1//EN'  'http://www.w3.org/Graphics/SVG/1.1/DTD/svg11.dtd'><svg enable-background="new 0 0 91 91" height="41px" id="Layer_1" version="1.1" viewBox="0 0 91 91" width="41px" xml:space="preserve" xmlns="http://www.w3.org/2000/svg" xmlns:xlink="http://www.w3.org/1999/xlink"><g><path d="M53.566,90.496H5.416c-2.305,0-4.174-1.869-4.174-4.176c0-2.305,1.869-4.174,4.174-4.174h48.151   c2.307,0,4.174,1.869,4.174,4.174C57.74,88.627,55.873,90.496,53.566,90.496z" fill="#93e4d5"/><path d="M86.223,63.303H5.416c-2.305,0-4.174-1.869-4.174-4.176s1.869-4.174,4.174-4.174h80.807   c2.307,0,4.176,1.867,4.176,4.174S88.529,63.303,86.223,63.303z" fill="#93e4d5"/><path d="M86.223,36.11H5.416c-2.305,0-4.174-1.869-4.174-4.176s1.869-4.176,4.174-4.176h80.807   c2.307,0,4.176,1.869,4.176,4.176S88.529,36.11,86.223,36.11z" fill="#93e4d5"/></g></svg>