<svg width="215" height="53" viewBox="0 0 215 53" fill="none" xmlns="http://www.w3.org/2000/svg">
<path d="M2.15199 7.18182H6.98864L13.4659 22.9915H13.7216L20.1989 7.18182H25.0355V29H21.2429V14.0107H21.0405L15.0107 28.9361H12.1768L6.14702 13.9787H5.9446V29H2.15199V7.18182ZM32.1413 29H27.9226L35.6037 7.18182H40.483L48.1747 29H43.956L38.1286 11.6562H37.9581L32.1413 29ZM32.2798 20.4453H43.7855V23.62H32.2798V20.4453ZM51.0485 29V7.18182H59.2303C60.9064 7.18182 62.3127 7.47301 63.449 8.0554C64.5925 8.63778 65.4554 9.45454 66.0378 10.5057C66.6273 11.5497 66.9221 12.7678 66.9221 14.1598C66.9221 15.5589 66.6238 16.7734 66.0272 17.8033C65.4377 18.826 64.5676 19.6179 63.4171 20.179C62.2665 20.733 60.8532 21.0099 59.177 21.0099H53.3496V17.7287H58.6444C59.6245 17.7287 60.427 17.5937 61.052 17.3239C61.677 17.0469 62.1387 16.6456 62.437 16.12C62.7424 15.5874 62.8951 14.9339 62.8951 14.1598C62.8951 13.3857 62.7424 12.7251 62.437 12.1783C62.1316 11.6243 61.6664 11.2053 61.0414 10.9212C60.4164 10.63 59.6103 10.4844 58.623 10.4844H55.0009V29H51.0485ZM62.3198 19.1136L67.7211 29H63.3105L58.0051 19.1136H62.3198ZM70.5602 29V7.18182H74.5126V17.2067H74.7789L83.291 7.18182H88.117L79.6795 16.9723L88.1916 29H83.4402L76.9309 19.6463L74.5126 22.5014V29H70.5602ZM90.8629 29V7.18182H105.053V10.495H94.8153V16.4183H104.318V19.7315H94.8153V25.6868H105.138V29H90.8629ZM108.127 10.495V7.18182H125.534V10.495H118.791V29H114.87V10.495H108.127ZM148.189 13.1797C148.089 12.2493 147.67 11.5249 146.932 11.0064C146.2 10.4879 145.249 10.2287 144.077 10.2287C143.253 10.2287 142.546 10.353 141.957 10.6016C141.367 10.8501 140.916 11.1875 140.604 11.6136C140.291 12.0398 140.131 12.5263 140.124 13.0732C140.124 13.5277 140.227 13.9219 140.433 14.2557C140.646 14.5895 140.934 14.8736 141.296 15.108C141.658 15.3352 142.06 15.527 142.5 15.6832C142.94 15.8395 143.384 15.9709 143.832 16.0774L145.877 16.5888C146.701 16.7805 147.493 17.0398 148.253 17.3665C149.02 17.6932 149.705 18.1051 150.309 18.6023C150.92 19.0994 151.403 19.6996 151.758 20.4027C152.113 21.1058 152.29 21.9297 152.29 22.8743C152.29 24.1527 151.964 25.2784 151.31 26.2514C150.657 27.2173 149.712 27.9737 148.477 28.5206C147.248 29.0604 145.76 29.3303 144.013 29.3303C142.315 29.3303 140.842 29.0675 139.592 28.5419C138.349 28.0163 137.376 27.2493 136.673 26.2408C135.977 25.2322 135.6 24.0036 135.543 22.5547H139.432C139.489 23.3146 139.723 23.9467 140.135 24.451C140.547 24.9553 141.083 25.3317 141.744 25.5803C142.411 25.8288 143.157 25.9531 143.981 25.9531C144.84 25.9531 145.593 25.8253 146.239 25.5696C146.893 25.3068 147.404 24.9446 147.773 24.483C148.143 24.0142 148.331 23.4673 148.338 22.8423C148.331 22.2741 148.164 21.8054 147.837 21.4361C147.511 21.0597 147.053 20.7472 146.463 20.4986C145.881 20.2429 145.199 20.0156 144.418 19.8168L141.935 19.1776C140.138 18.7159 138.718 18.0163 137.674 17.0788C136.637 16.1342 136.119 14.8807 136.119 13.3182C136.119 12.0327 136.467 10.907 137.163 9.94105C137.866 8.97514 138.821 8.22585 140.028 7.69318C141.236 7.15341 142.603 6.88352 144.13 6.88352C145.678 6.88352 147.035 7.15341 148.2 7.69318C149.371 8.22585 150.291 8.96804 150.959 9.91974C151.626 10.8643 151.971 11.951 151.992 13.1797H148.189ZM175.31 18.0909C175.31 20.4418 174.869 22.4553 173.989 24.1314C173.115 25.8004 171.922 27.0788 170.409 27.9666C168.904 28.8544 167.195 29.2983 165.285 29.2983C163.374 29.2983 161.663 28.8544 160.15 27.9666C158.644 27.0717 157.451 25.7898 156.57 24.1207C155.697 22.4446 155.26 20.4347 155.26 18.0909C155.26 15.7401 155.697 13.7301 156.57 12.0611C157.451 10.3849 158.644 9.10298 160.15 8.2152C161.663 7.32741 163.374 6.88352 165.285 6.88352C167.195 6.88352 168.904 7.32741 170.409 8.2152C171.922 9.10298 173.115 10.3849 173.989 12.0611C174.869 13.7301 175.31 15.7401 175.31 18.0909ZM171.336 18.0909C171.336 16.4361 171.077 15.0405 170.558 13.9041C170.047 12.7607 169.337 11.8977 168.428 11.3153C167.519 10.7259 166.471 10.4311 165.285 10.4311C164.099 10.4311 163.051 10.7259 162.142 11.3153C161.233 11.8977 160.519 12.7607 160.001 13.9041C159.49 15.0405 159.234 16.4361 159.234 18.0909C159.234 19.7457 159.49 21.1449 160.001 22.2884C160.519 23.4247 161.233 24.2876 162.142 24.8771C163.051 25.4595 164.099 25.7507 165.285 25.7507C166.471 25.7507 167.519 25.4595 168.428 24.8771C169.337 24.2876 170.047 23.4247 170.558 22.2884C171.077 21.1449 171.336 19.7457 171.336 18.0909ZM179.047 29V7.18182H193.024V10.495H182.999V16.4183H192.065V19.7315H182.999V29H179.047ZM195.666 10.495V7.18182H213.074V10.495H206.33V29H202.409V10.495H195.666Z" fill="black"/>
<path d="M8.07 43.585C8.82 43.725 9.39 44.02 9.78 44.47C10.18 44.92 10.38 45.505 10.38 46.225C10.38 47.115 10.055 47.8 9.405 48.28C8.755 48.76 7.79 49 6.51 49H1.83V38.5H6.21C7.35 38.5 8.235 38.735 8.865 39.205C9.505 39.665 9.825 40.325 9.825 41.185C9.825 41.785 9.665 42.29 9.345 42.7C9.035 43.11 8.61 43.405 8.07 43.585ZM2.595 39.16V43.345H6.18C7.1 43.345 7.805 43.17 8.295 42.82C8.795 42.46 9.045 41.935 9.045 41.245C9.045 40.565 8.795 40.05 8.295 39.7C7.805 39.34 7.1 39.16 6.18 39.16H2.595ZM6.51 48.34C7.53 48.34 8.3 48.165 8.82 47.815C9.35 47.455 9.615 46.905 9.615 46.165C9.615 45.425 9.35 44.88 8.82 44.53C8.3 44.18 7.53 44.005 6.51 44.005H2.595V48.34H6.51ZM16.1296 45.385V49H15.3646V45.385L11.1346 38.5H11.9746L15.7696 44.68L19.5646 38.5H20.3596L16.1296 45.385ZM33.4071 49L30.9021 45.49C30.5321 45.54 30.1921 45.565 29.8821 45.565H26.8821V49H26.1171V38.5H29.8821C31.2021 38.5 32.2371 38.815 32.9871 39.445C33.7371 40.065 34.1121 40.93 34.1121 42.04C34.1121 42.87 33.8971 43.57 33.4671 44.14C33.0471 44.7 32.4421 45.095 31.6521 45.325L34.2771 49H33.4071ZM29.8821 44.89C31.0021 44.89 31.8571 44.645 32.4471 44.155C33.0371 43.655 33.3321 42.95 33.3321 42.04C33.3321 41.13 33.0371 40.43 32.4471 39.94C31.8571 39.44 31.0021 39.19 29.8821 39.19H26.8821V44.89H29.8821ZM43.408 46.045H37.318L35.983 49H35.158L39.988 38.5H40.753L45.583 49H44.758L43.408 46.045ZM43.123 45.4L40.363 39.34L37.618 45.4H43.123ZM48.9718 39.19H45.1918V38.5H53.5168V39.19H49.7368V49H48.9718V39.19ZM62.659 48.31V49H55.414V38.5H62.434V39.19H56.179V43.33H61.774V44.005H56.179V48.31H62.659ZM64.2552 44.635H68.1102V45.31H64.2552V44.635ZM72.4093 39.19H68.6293V38.5H76.9543V39.19H73.1743V49H72.4093V39.19ZM87.4015 38.5V49H86.6365V44.005H79.6165V49H78.8515V38.5H79.6165V43.33H86.6365V38.5H87.4015ZM91.0683 38.5H91.8333V49H91.0683V38.5ZM98.2521 49.075C97.4821 49.075 96.7471 48.945 96.0471 48.685C95.3571 48.415 94.8171 48.07 94.4271 47.65L94.7721 47.08C95.1421 47.47 95.6371 47.79 96.2571 48.04C96.8871 48.28 97.5471 48.4 98.2371 48.4C99.2371 48.4 99.9921 48.21 100.502 47.83C101.012 47.45 101.267 46.955 101.267 46.345C101.267 45.875 101.132 45.5 100.862 45.22C100.592 44.94 100.257 44.725 99.8571 44.575C99.4571 44.425 98.9171 44.27 98.2371 44.11C97.4671 43.92 96.8471 43.735 96.3771 43.555C95.9171 43.375 95.5221 43.1 95.1921 42.73C94.8721 42.35 94.7121 41.845 94.7121 41.215C94.7121 40.705 94.8471 40.24 95.1171 39.82C95.3871 39.39 95.7971 39.05 96.3471 38.8C96.9071 38.55 97.6021 38.425 98.4321 38.425C99.0121 38.425 99.5821 38.51 100.142 38.68C100.702 38.85 101.187 39.08 101.597 39.37L101.312 39.985C100.892 39.695 100.427 39.475 99.9171 39.325C99.4171 39.175 98.9221 39.1 98.4321 39.1C97.4621 39.1 96.7271 39.295 96.2271 39.685C95.7271 40.075 95.4771 40.58 95.4771 41.2C95.4771 41.67 95.6121 42.045 95.8821 42.325C96.1521 42.605 96.4871 42.82 96.8871 42.97C97.2871 43.12 97.8321 43.28 98.5221 43.45C99.2921 43.64 99.9071 43.825 100.367 44.005C100.827 44.185 101.217 44.46 101.537 44.83C101.867 45.19 102.032 45.68 102.032 46.3C102.032 46.81 101.892 47.275 101.612 47.695C101.342 48.115 100.922 48.45 100.352 48.7C99.7821 48.95 99.0821 49.075 98.2521 49.075ZM115.985 43.795H116.72V47.725C116.26 48.165 115.7 48.5 115.04 48.73C114.39 48.96 113.7 49.075 112.97 49.075C111.93 49.075 110.99 48.845 110.15 48.385C109.32 47.925 108.665 47.29 108.185 46.48C107.715 45.67 107.48 44.76 107.48 43.75C107.48 42.74 107.715 41.83 108.185 41.02C108.665 40.21 109.32 39.575 110.15 39.115C110.99 38.655 111.935 38.425 112.985 38.425C113.755 38.425 114.46 38.55 115.1 38.8C115.75 39.04 116.305 39.395 116.765 39.865L116.285 40.375C115.845 39.935 115.35 39.62 114.8 39.43C114.26 39.23 113.66 39.13 113 39.13C112.1 39.13 111.285 39.33 110.555 39.73C109.835 40.13 109.27 40.685 108.86 41.395C108.45 42.095 108.245 42.88 108.245 43.75C108.245 44.61 108.45 45.395 108.86 46.105C109.28 46.805 109.85 47.36 110.57 47.77C111.29 48.17 112.1 48.37 113 48.37C114.2 48.37 115.195 48.05 115.985 47.41V43.795ZM127.377 49L124.872 45.49C124.502 45.54 124.162 45.565 123.852 45.565H120.852V49H120.087V38.5H123.852C125.172 38.5 126.207 38.815 126.957 39.445C127.707 40.065 128.082 40.93 128.082 42.04C128.082 42.87 127.867 43.57 127.437 44.14C127.017 44.7 126.412 45.095 125.622 45.325L128.247 49H127.377ZM123.852 44.89C124.972 44.89 125.827 44.645 126.417 44.155C127.007 43.655 127.302 42.95 127.302 42.04C127.302 41.13 127.007 40.43 126.417 39.94C125.827 39.44 124.972 39.19 123.852 39.19H120.852V44.89H123.852ZM135.338 49.075C134.308 49.075 133.378 48.845 132.548 48.385C131.718 47.915 131.063 47.275 130.583 46.465C130.113 45.655 129.878 44.75 129.878 43.75C129.878 42.75 130.113 41.845 130.583 41.035C131.063 40.225 131.718 39.59 132.548 39.13C133.378 38.66 134.308 38.425 135.338 38.425C136.368 38.425 137.298 38.655 138.128 39.115C138.958 39.575 139.608 40.21 140.078 41.02C140.558 41.83 140.798 42.74 140.798 43.75C140.798 44.76 140.558 45.67 140.078 46.48C139.608 47.29 138.958 47.925 138.128 48.385C137.298 48.845 136.368 49.075 135.338 49.075ZM135.338 48.37C136.218 48.37 137.013 48.17 137.723 47.77C138.433 47.37 138.993 46.82 139.403 46.12C139.813 45.41 140.018 44.62 140.018 43.75C140.018 42.88 139.813 42.095 139.403 41.395C138.993 40.685 138.433 40.13 137.723 39.73C137.013 39.33 136.218 39.13 135.338 39.13C134.458 39.13 133.658 39.33 132.938 39.73C132.228 40.13 131.668 40.685 131.258 41.395C130.848 42.095 130.643 42.88 130.643 43.75C130.643 44.62 130.848 45.41 131.258 46.12C131.668 46.82 132.228 47.37 132.938 47.77C133.658 48.17 134.458 48.37 135.338 48.37ZM147.561 49.075C146.231 49.075 145.196 48.69 144.456 47.92C143.726 47.15 143.361 46.025 143.361 44.545V38.5H144.126V44.515C144.126 45.805 144.421 46.77 145.011 47.41C145.601 48.05 146.456 48.37 147.576 48.37C148.686 48.37 149.536 48.05 150.126 47.41C150.716 46.77 151.011 45.805 151.011 44.515V38.5H151.776V44.545C151.776 46.025 151.406 47.15 150.666 47.92C149.926 48.69 148.891 49.075 147.561 49.075ZM159.111 38.5C160.431 38.5 161.466 38.815 162.216 39.445C162.966 40.065 163.341 40.93 163.341 42.04C163.341 43.14 162.966 44.005 162.216 44.635C161.466 45.255 160.431 45.565 159.111 45.565H156.111V49H155.346V38.5H159.111ZM159.111 44.875C160.231 44.875 161.086 44.63 161.676 44.14C162.266 43.65 162.561 42.95 162.561 42.04C162.561 41.13 162.266 40.43 161.676 39.94C161.086 39.44 160.231 39.19 159.111 39.19H156.111V44.875H159.111Z" fill="black"/>
</svg>
